<svg fill="none" height="246" viewBox="0 0 165 246" width="165" xmlns="http://www.w3.org/2000/svg" xmlns:xlink="http://www.w3.org/1999/xlink"><linearGradient id="a"><stop offset=".324389" stop-color="#fff"/><stop offset=".762785" stop-color="#f0f5f8"/></linearGradient><linearGradient id="b" gradientUnits="userSpaceOnUse" x1="149.5" x2="-114.547" xlink:href="#a" y1="-82.5" y2="178.239"/><linearGradient id="c"><stop offset="0" stop-color="#59689b" stop-opacity=".3"/><stop offset="1" stop-color="#1d2338"/></linearGradient><linearGradient id="d" gradientUnits="userSpaceOnUse" x1="-2.8171" x2="173.909" xlink:href="#c" y1="159.423" y2="196.879"/><linearGradient id="e" gradientUnits="userSpaceOnUse" x1="149.5" x2="-114.547" xlink:href="#a" y1="-85.5" y2="175.239"/><linearGradient id="f" gradientUnits="userSpaceOnUse" x1="-2.8171" x2="173.909" xlink:href="#c" y1="156.423" y2="193.879"/><linearGradient id="g" gradientUnits="userSpaceOnUse" x1="149.5" x2="-114.547" xlink:href="#a" y1="-88.5" y2="172.239"/><linearGradient id="h" gradientUnits="userSpaceOnUse" x1="-2.8171" x2="173.909" xlink:href="#c" y1="153.423" y2="190.879"/><path d="m153 6h-141c-6.62742 0-12 5.3726-12 12v216c0 6.627 5.37258 12 12 12h141c6.627 0 12-5.373 12-12v-216c0-6.6274-5.373-12-12-12z" fill="url(#b)"/><path clip-rule="evenodd" d="m12 8c-5.52285 0-10 4.4772-10 10v216c0 5.523 4.47715 10 10 10h141c5.523 0 10-4.477 10-10v-216c0-5.5228-4.477-10-10-10zm-12 10c0-6.6274 5.37258-12 12-12h141c6.627 0 12 5.3726 12 12v216c0 6.627-5.373 12-12 12h-141c-6.62742 0-12-5.373-12-12z" fill="url(#d)" fill-opacity=".4" fill-rule="evenodd"/><path d="m153 3h-141c-6.62742 0-12 5.37258-12 12v216c0 6.627 5.37258 12 12 12h141c6.627 0 12-5.373 12-12v-216c0-6.62742-5.373-12-12-12z" fill="url(#e)"/><path clip-rule="evenodd" d="m12 5c-5.52285 0-10 4.47715-10 10v216c0 5.523 4.47715 10 10 10h141c5.523 0 10-4.477 10-10v-216c0-5.52285-4.477-10-10-10zm-12 10c0-6.62742 5.37258-12 12-12h141c6.627 0 12 5.37258 12 12v216c0 6.627-5.373 12-12 12h-141c-6.62742 0-12-5.373-12-12z" fill="url(#f)" fill-opacity=".4" fill-rule="evenodd"/><path d="m153 0h-141c-6.62742 0-12 5.37258-12 12v216c0 6.627 5.37258 12 12 12h141c6.627 0 12-5.373 12-12v-216c0-6.62742-5.373-12-12-12z" fill="url(#g)"/><path clip-rule="evenodd" d="m12 2c-5.52285 0-10 4.47715-10 10v216c0 5.523 4.47715 10 10 10h141c5.523 0 10-4.477 10-10v-216c0-5.52285-4.477-10-10-10zm-12 10c0-6.62742 5.37258-12 12-12h141c6.627 0 12 5.37258 12 12v216c0 6.627-5.373 12-12 12h-141c-6.62742 0-12-5.373-12-12z" fill="url(#h)" fill-opacity=".4" fill-rule="evenodd"/></svg>